<svg viewBox="-227.538 208.284 727.538 291.716" width="727.538" height="291.716" xmlns="http://www.w3.org/2000/svg" xmlns:bx="https://boxy-svg.com">
  <path style="fill: rgb(102, 155, 178); paint-order: fill; fill-rule: nonzero; stroke: rgb(98, 149, 170); stroke-width: 5px;" d="M -244.346 297.611 H 422.605 A 20 20 0 0 1 442.605 317.611 V 380.295 A 20 20 0 0 1 422.605 400.295 H -244.346 V 297.611 Z" bx:shape="rect -244.346 297.611 686.951 102.684 0 20 20 0 1@c71b03bf"/>
  <path style="paint-order: fill; fill-rule: nonzero; stroke: rgb(98, 149, 170); fill: rgb(98, 149, 170); stroke-width: 0px;" d="M -244.369 297.6 H 422.582 A 20 20 0 0 1 442.582 317.6 V 356.752 H -244.369 V 297.6 Z" bx:shape="rect -244.369 297.6 686.951 59.152 0 20 0 0 1@8e949c1d"/>
  <rect x="420.969" y="295.65" width="1.592" height="106.646" style="stroke: rgb(85, 129, 150); fill: rgb(85, 129, 150);"/>
  <rect x="405.953" y="295.655" width="1.592" height="106.646" style="stroke: rgb(85, 129, 150); fill: rgb(85, 129, 150);"/>
  <rect x="391.016" y="295.668" width="1.592" height="106.646" style="stroke: rgb(85, 129, 150); fill: rgb(85, 129, 150);"/>
  <rect x="376" y="295.673" width="1.592" height="106.646" style="stroke: rgb(85, 129, 150); fill: rgb(85, 129, 150);"/>
  <rect x="359.969" y="295.657" width="1.592" height="106.646" style="stroke: rgb(85, 129, 150); fill: rgb(85, 129, 150);"/>
  <rect x="344.953" y="295.662" width="1.592" height="106.646" style="stroke: rgb(85, 129, 150); fill: rgb(85, 129, 150);"/>
  <rect x="330.016" y="295.675" width="1.592" height="106.646" style="stroke: rgb(85, 129, 150); fill: rgb(85, 129, 150);"/>
  <rect x="315" y="295.68" width="1.592" height="106.646" style="stroke: rgb(85, 129, 150); fill: rgb(85, 129, 150);"/>
  <rect x="299.969" y="295.667" width="1.592" height="106.646" style="stroke: rgb(85, 129, 150); fill: rgb(85, 129, 150);"/>
  <rect x="284.953" y="295.672" width="1.592" height="106.646" style="stroke: rgb(85, 129, 150); fill: rgb(85, 129, 150);"/>
  <rect x="270.016" y="295.685" width="1.592" height="106.646" style="stroke: rgb(85, 129, 150); fill: rgb(85, 129, 150);"/>
  <rect x="255" y="295.69" width="1.592" height="106.646" style="stroke: rgb(85, 129, 150); fill: rgb(85, 129, 150);"/>
  <rect x="238.969" y="295.674" width="1.592" height="106.646" style="stroke: rgb(85, 129, 150); fill: rgb(85, 129, 150);"/>
  <rect x="223.953" y="295.679" width="1.592" height="106.646" style="stroke: rgb(85, 129, 150); fill: rgb(85, 129, 150);"/>
  <rect x="209.016" y="295.692" width="1.592" height="106.646" style="stroke: rgb(85, 129, 150); fill: rgb(85, 129, 150);"/>
  <rect x="194" y="295.697" width="1.592" height="106.646" style="stroke: rgb(85, 129, 150); fill: rgb(85, 129, 150);"/>
  <rect x="177.969" y="295.657" width="1.592" height="106.646" style="stroke: rgb(85, 129, 150); fill: rgb(85, 129, 150);"/>
  <rect x="162.953" y="295.662" width="1.592" height="106.646" style="stroke: rgb(85, 129, 150); fill: rgb(85, 129, 150);"/>
  <rect x="148.016" y="295.675" width="1.592" height="106.646" style="stroke: rgb(85, 129, 150); fill: rgb(85, 129, 150);"/>
  <rect x="133" y="295.68" width="1.592" height="106.646" style="stroke: rgb(85, 129, 150); fill: rgb(85, 129, 150);"/>
  <rect x="116.969" y="295.664" width="1.592" height="106.646" style="stroke: rgb(85, 129, 150); fill: rgb(85, 129, 150);"/>
  <rect x="101.953" y="295.669" width="1.592" height="106.646" style="stroke: rgb(85, 129, 150); fill: rgb(85, 129, 150);"/>
  <rect x="87.016" y="295.682" width="1.592" height="106.646" style="stroke: rgb(85, 129, 150); fill: rgb(85, 129, 150);"/>
  <rect x="72" y="295.687" width="1.592" height="106.646" style="stroke: rgb(85, 129, 150); fill: rgb(85, 129, 150);"/>
  <rect x="56.969" y="295.674" width="1.592" height="106.646" style="stroke: rgb(85, 129, 150); fill: rgb(85, 129, 150);"/>
  <rect x="41.953" y="295.679" width="1.592" height="106.646" style="stroke: rgb(85, 129, 150); fill: rgb(85, 129, 150);"/>
  <rect x="27.016" y="295.692" width="1.592" height="106.646" style="stroke: rgb(85, 129, 150); fill: rgb(85, 129, 150);"/>
  <rect x="12" y="295.697" width="1.592" height="106.646" style="stroke: rgb(85, 129, 150); fill: rgb(85, 129, 150);"/>
  <rect x="-4.031" y="295.681" width="1.592" height="106.646" style="stroke: rgb(85, 129, 150); fill: rgb(85, 129, 150);"/>
  <rect x="-19.047" y="295.686" width="1.592" height="106.646" style="stroke: rgb(85, 129, 150); fill: rgb(85, 129, 150);"/>
  <rect x="-33.984" y="295.699" width="1.592" height="106.646" style="stroke: rgb(85, 129, 150); fill: rgb(85, 129, 150);"/>
  <rect x="-49" y="295.704" width="1.592" height="106.646" style="stroke: rgb(85, 129, 150); fill: rgb(85, 129, 150);"/>
  <rect x="178.969" y="295.864" width="1.592" height="106.424" style="stroke: rgb(85, 129, 150); fill: rgb(85, 129, 150);"/>
  <rect x="163.953" y="295.869" width="1.592" height="106.424" style="stroke: rgb(85, 129, 150); fill: rgb(85, 129, 150);"/>
  <rect x="149.016" y="295.882" width="1.592" height="106.424" style="stroke: rgb(85, 129, 150); fill: rgb(85, 129, 150);"/>
  <rect x="134" y="295.887" width="1.592" height="106.424" style="stroke: rgb(85, 129, 150); fill: rgb(85, 129, 150);"/>
  <rect x="117.969" y="295.871" width="1.592" height="106.424" style="stroke: rgb(85, 129, 150); fill: rgb(85, 129, 150);"/>
  <rect x="102.953" y="295.876" width="1.592" height="106.424" style="stroke: rgb(85, 129, 150); fill: rgb(85, 129, 150);"/>
  <rect x="88.016" y="295.889" width="1.592" height="106.424" style="stroke: rgb(85, 129, 150); fill: rgb(85, 129, 150);"/>
  <rect x="73" y="295.894" width="1.592" height="106.424" style="stroke: rgb(85, 129, 150); fill: rgb(85, 129, 150);"/>
  <rect x="57.969" y="295.881" width="1.592" height="106.424" style="stroke: rgb(85, 129, 150); fill: rgb(85, 129, 150);"/>
  <rect x="42.953" y="295.886" width="1.592" height="106.424" style="stroke: rgb(85, 129, 150); fill: rgb(85, 129, 150);"/>
  <rect x="28.016" y="295.899" width="1.592" height="106.424" style="stroke: rgb(85, 129, 150); fill: rgb(85, 129, 150);"/>
  <rect x="13" y="295.905" width="1.592" height="106.424" style="stroke: rgb(85, 129, 150); fill: rgb(85, 129, 150);"/>
  <rect x="-3.031" y="295.888" width="1.592" height="106.424" style="stroke: rgb(85, 129, 150); fill: rgb(85, 129, 150);"/>
  <rect x="-18.047" y="295.893" width="1.592" height="106.424" style="stroke: rgb(85, 129, 150); fill: rgb(85, 129, 150);"/>
  <rect x="-32.984" y="295.907" width="1.592" height="106.424" style="stroke: rgb(85, 129, 150); fill: rgb(85, 129, 150);"/>
  <rect x="-48" y="295.912" width="1.592" height="106.424" style="stroke: rgb(85, 129, 150); fill: rgb(85, 129, 150);"/>
  <rect x="-64.031" y="295.871" width="1.592" height="106.424" style="stroke: rgb(85, 129, 150); fill: rgb(85, 129, 150);"/>
  <rect x="-79.047" y="295.876" width="1.592" height="106.424" style="stroke: rgb(85, 129, 150); fill: rgb(85, 129, 150);"/>
  <rect x="-93.984" y="295.889" width="1.592" height="106.424" style="stroke: rgb(85, 129, 150); fill: rgb(85, 129, 150);"/>
  <rect x="-109" y="295.894" width="1.592" height="106.424" style="stroke: rgb(85, 129, 150); fill: rgb(85, 129, 150);"/>
  <rect x="-125.031" y="295.878" width="1.592" height="106.424" style="stroke: rgb(85, 129, 150); fill: rgb(85, 129, 150);"/>
  <rect x="-140.047" y="295.883" width="1.592" height="106.424" style="stroke: rgb(85, 129, 150); fill: rgb(85, 129, 150);"/>
  <rect x="-154.984" y="295.896" width="1.592" height="106.424" style="stroke: rgb(85, 129, 150); fill: rgb(85, 129, 150);"/>
  <rect x="-170" y="295.901" width="1.592" height="106.424" style="stroke: rgb(85, 129, 150); fill: rgb(85, 129, 150);"/>
  <rect x="-185.031" y="295.888" width="1.592" height="106.424" style="stroke: rgb(85, 129, 150); fill: rgb(85, 129, 150);"/>
  <rect x="-200.047" y="295.893" width="1.592" height="106.424" style="stroke: rgb(85, 129, 150); fill: rgb(85, 129, 150);"/>
  <rect x="-214.984" y="295.907" width="1.592" height="106.424" style="stroke: rgb(85, 129, 150); fill: rgb(85, 129, 150);"/>
  <path style="stroke: rgb(85, 129, 150); fill: rgb(85, 129, 150);" d="M 434.712 299.989 H 435.508 A 0.796 0.8 0 0 1 436.304 300.789 V 397.124 A 0.796 0.8 0 0 1 435.508 397.924 H 434.712 V 299.989 Z" bx:shape="rect 434.712 299.989 1.592 97.935 0 0.8 0.8 0 1@1b4955fc"/>
  <rect style="stroke: rgb(85, 129, 150); fill: rgb(85, 129, 150);" x="2.761" y="202.405" width="0.01" height="1.649" transform="matrix(0.601815, -0.798635, 0.798635, 0.601815, 271.599457, 179.786713)"/>
  <rect style="stroke: rgb(85, 129, 150); fill: rgb(85, 129, 150);" x="2.761" y="202.405" width="0.01" height="1.649" transform="matrix(0.601815, 0.798635, 0.798635, -0.601815, 271.603546, 518.1026)"/>
</svg>